<svg xmlns="http://www.w3.org/2000/svg" width="1200" height="630" viewBox="0 0 1200 630">
  <!-- Background -->
  <rect width="1200" height="630" fill="#f8fafc"/>
  
  <!-- Gradient background -->
  <defs>
    <linearGradient id="bg-gradient" x1="0%" y1="0%" x2="100%" y2="100%">
      <stop offset="0%" style="stop-color:#e2e8f0;stop-opacity:1" />
      <stop offset="100%" style="stop-color:#f1f5f9;stop-opacity:1" />
    </linearGradient>
  </defs>
  <rect width="1200" height="630" fill="url(#bg-gradient)"/>
  
  <!-- Logo (scaled up version of favicon) -->
  <g transform="translate(500, 200) scale(8)">
    <!-- AutomaPost logo paths from favicon -->
    <g>
      <path d="M70,57c-4.8,0-8.9,3.4-9.8,8H47c-0.6,0-1,0.5-1,1.1c0,0.3,0,0.6,0,0.9c0,1-0.1,1.9-0.3,2.8 c-0.1,0.6,0.4,1.2,1,1.2h14.1c1.5,3.5,5.1,6,9.2,6c5.5,0,10-4.5,10-10C80,61.5,75.5,57,70,57z" fill="#213130"/>
      <path d="M43.3,45.5c-1.2-0.5-2.3-1.2-3.3-2c-0.5-0.4-1.2-0.2-1.5,0.3l-7.1,13.3C31,57,30.5,57,30,57 c-5.5,0-10,4.5-10,10c0,5.5,4.5,10,10,10c5.5,0,10-4.5,10-10c0-2.9-1.2-5.4-3.1-7.3l6.9-12.8C44,46.4,43.8,45.8,43.3,45.5z" fill="#213130"/>
      <path d="M50,41c1,0,1.9-0.1,2.8-0.4l6.9,12.7c0.3,0.5,0.9,0.7,1.4,0.4c1.1-0.7,2.2-1.3,3.4-1.7 c0.6-0.2,0.8-0.9,0.5-1.4l-7.2-13.4c1.3-1.7,2.2-3.9,2.2-6.2c0-5.5-4.5-10-10-10s-10,4.5-10,10C40,36.5,44.5,41,50,41z" fill="#213130"/>
    </g>
  </g>
  
  <!-- Text -->
  <text x="600" y="380" text-anchor="middle" fill="#213130" font-family="Arial, sans-serif" font-size="64" font-weight="bold">AutomaPost</text>
  <text x="600" y="430" text-anchor="middle" fill="#64748b" font-family="Arial, sans-serif" font-size="32">AI-Powered LinkedIn Automation</text>
  
  <!-- Subtle decoration -->
  <circle cx="200" cy="150" r="3" fill="#e2e8f0" opacity="0.6"/>
  <circle cx="1000" cy="480" r="3" fill="#e2e8f0" opacity="0.6"/>
  <circle cx="150" cy="500" r="2" fill="#e2e8f0" opacity="0.4"/>
  <circle cx="1050" cy="180" r="2" fill="#e2e8f0" opacity="0.4"/>
</svg>